<?xml version="1.0" encoding="UTF-8"?>
<svg width="36px" height="36px" viewBox="0 0 36 36" version="1.1" xmlns="http://www.w3.org/2000/svg" xmlns:xlink="http://www.w3.org/1999/xlink">
    <!-- Generator: Sketch 58 (84663) - https://sketch.com -->
    <title>密码</title>
    <desc>Created with Sketch.</desc>
    <g id="-" stroke="none" stroke-width="1" fill="none" fill-rule="evenodd">
        <g id="危废pc登陆页2备份-5" transform="translate(-754.000000, -596.000000)" fill="#555550" fill-rule="nonzero">
            <g id="编组-5">
                <g id="编组-4" transform="translate(728.000000, 580.000000)">
                    <g id="密码" transform="translate(26.000000, 16.000000)">
                        <path d="M33.5725401,17.6546928 L33.5725401,29.9635626 C33.4728524,32.9319285 31.0047244,35.2610071 28.0519083,35.1711614 L8.59563461,35.1711614 C5.64625602,35.2610071 3.17469051,32.9319285 3.07500288,29.9635626 L3.07500288,17.6546928 C3.171253,14.7312499 5.56719342,12.4194492 8.47532197,12.4470941 L8.47532197,9.63423049 C8.71250975,4.33678596 13.05064,0.162413498 18.3237715,0.162413498 C23.5969029,0.162413498 27.9350332,4.33678596 28.1687835,9.63077488 L28.1687835,12.4470941 C31.076912,12.4194492 33.4728524,14.7312499 33.5725401,17.6546928 Z M25.765968,9.63423049 C25.6422179,5.59117107 22.3456514,2.37745717 18.3237715,2.37745717 C14.2984541,2.37745717 11.005325,5.59117107 10.8815749,9.63423049 L10.8815749,12.3987156 L25.772843,12.3987156 L25.765968,9.63423049 L25.765968,9.63423049 Z M8.59907212,14.6517709 C6.91125756,14.6172148 5.51563086,15.9579901 5.47438081,17.6512372 L5.47438081,29.960107 C5.51563086,31.6568097 6.91125756,32.997585 8.59907212,32.9595733 L28.0381583,32.9595733 C29.7225354,32.9941294 31.1181621,31.6533541 31.1594121,29.960107 L31.1594121,17.6512372 C31.1181621,15.9545345 29.7225354,14.6137592 28.0347208,14.6517709 L25.752218,14.6517709 L10.8609499,14.6033924 L8.5818846,14.6517709 L8.59907212,14.6517709 Z M18.1553338,19.5656431 C19.3618977,19.5345427 20.3690865,20.48829 20.406899,21.7046635 C20.3965865,22.4821749 19.9668985,23.1905742 19.2828351,23.5568685 L19.2828351,27.0401197 C19.2553351,27.6448508 18.756897,28.1217244 18.1553338,28.1217244 C17.550333,28.1217244 17.0553324,27.6483064 17.0278324,27.0401197 L17.0278324,23.5534128 C16.3437691,23.1905742 15.914081,22.4821749 15.9037685,21.7046635 C15.9415811,20.4952012 16.9453323,19.5379983 18.1484588,19.5725543 L18.1553338,19.5656431 L18.1553338,19.5656431 Z" id="形状"></path>
                    </g>
                </g>
            </g>
        </g>
    </g>
</svg>