<?xml version="1.0" encoding="UTF-8"?>
<svg width="36px" height="36px" viewBox="0 0 36 36" version="1.1" xmlns="http://www.w3.org/2000/svg" xmlns:xlink="http://www.w3.org/1999/xlink">
    <!-- Generator: Sketch 58 (84663) - https://sketch.com -->
    <title>账号</title>
    <desc>Created with Sketch.</desc>
    <g id="-" stroke="none" stroke-width="1" fill="none" fill-rule="evenodd">
        <g id="危废pc登陆页2备份-5" transform="translate(-754.000000, -486.000000)" fill="#0B55F4" fill-rule="nonzero">
            <g id="编组-5">
                <g id="编组-3" transform="translate(728.000000, 467.000000)">
                    <g id="账号" transform="translate(26.000000, 19.000000)">
                        <path d="M9.77912746,11.6231872 C9.77912746,6.82630705 13.7830315,2.95189989 18.740241,2.95189989 C23.6974505,2.95189989 27.7013546,6.82630705 27.7013546,11.6231872 C27.7013546,16.4200674 23.6974505,20.2944745 18.740241,20.2944745 C13.7830315,20.2944745 9.77912746,16.6045825 9.77912746,11.6231872 M35.327798,33.2091308 C33.8025022,27.8587737 29.9892592,23.6153705 25.0320498,21.5859436 C28.4639635,19.5564961 30.9425647,15.8665904 30.9425647,11.6231872 C30.9425647,5.16584194 25.6040259,0 18.9308879,0 C12.2577145,0 6.72852883,5.16587622 6.72852883,11.6231872 C6.72852883,15.8665904 9.01646894,19.5564824 12.6390437,21.5859436 C7.68183426,23.615391 3.6779302,27.8587737 2.15264859,33.2091308 C1.9619868,33.9471126 2.34331039,34.8695891 3.29661865,35.0540837 C4.05926654,35.2385789 5.01257551,34.8695884 5.2032366,33.9471126 C6.91919345,27.6742825 12.4483862,23.4308793 18.9308773,23.4308793 C25.4133684,23.4308793 30.7519071,27.8587634 32.658518,33.9471126 C32.8491798,34.3161018 33.0398402,34.6850945 33.4211659,34.8695891 C33.8024881,35.0540843 34.1838138,35.0540843 34.5651359,35.0540843 C35.1371227,34.8695891 35.5184449,33.9471133 35.3277838,33.2091315" id="形状"></path>
                    </g>
                </g>
            </g>
        </g>
    </g>
</svg>